PathFileType	4	(X/Y/Z)	D:\datacapture\jf2lin\2017-09-14 IITTimeSync\timesync1.trc
DataRate	CameraRate	NumFrames	NumMarkers	Units	OrigDataRate	OrigDataStartFrame	OrigNumFrames
100.00	100.00	      187	3	mm	100.00	2026	      3241
Frame#	Time	M1			M2			M3			
		X1	Y1	Z1	X2	Y2	Z2	X3	Y3	Z3	

2026	20.250										
2027	20.260										
2028	20.270										
2029	20.280										
2030	20.290										
2031	20.300										
2032	20.310										
2033	20.320										
2034	20.330										
2035	20.340										
2036	20.350										
2037	20.360										
2038	20.370										
2039	20.380										
2040	20.390										
2041	20.400										
2042	20.410										
2043	20.420										
2044	20.430										
2045	20.440										
2046	20.450										
2047	20.460										
2048	20.470										
2049	20.480										
2050	20.490										
2051	20.500										
2052	20.510										
2053	20.520										
2054	20.530										
2055	20.540										
2056	20.550										
2057	20.560										
2058	20.570										
2059	20.580										
2060	20.590										
2061	20.600										
2062	20.610										
2063	20.620										
2064	20.630										
2065	20.640										
2066	20.650										
2067	20.660										
2068	20.670										
2069	20.680										
2070	20.690										
2071	20.700										
2072	20.710										
2073	20.720	33.18942	1327.99011	246.37102	81.14823	1344.37927	248.12776	125.11953	1351.98901	81.06716	
2074	20.730	34.30745	1319.83472	248.72510	82.50634	1338.28320	249.70248	124.81625	1351.66077	81.58672	
2075	20.740	35.56286	1312.97803	250.73914	82.98594	1331.85327	251.06726	125.07231	1352.13721	81.00281	
2076	20.750	35.41423	1304.78271	253.54002	83.75454	1325.98840	252.11674	125.18284	1352.18762	80.87506	
2077	20.760	36.32559	1298.60291	255.08769	84.66481	1319.65149	252.97678	124.83657	1351.58765	81.19007	
2078	20.770	37.36127	1293.17590	255.03796	85.34995	1313.04187	254.27359	124.99157	1351.91882	81.29164	
2079	20.780	38.59066	1285.57617	256.14261	85.69830	1306.01807	255.05315	124.99209	1351.73010	80.89537	
2080	20.790	38.57753	1278.05627	257.94003	87.74407	1299.20874	255.14267				
2081	20.800	40.42021	1270.31470	258.50418	88.90478	1292.91003	254.32228				
2082	20.810	42.62671	1263.48914	256.81015	89.61567	1284.83386	255.19479				
2083	20.820	43.01317	1254.99292	257.73795	91.28966	1278.18799	254.62109				
2084	20.830	44.49402	1247.57788	257.18356	92.67482	1269.86902	254.37546				
2085	20.840	46.78398	1240.79639	255.58383	93.50365	1262.40613	253.50229				
2086	20.850	48.80778	1233.54712	253.75388	96.07137	1255.55359	251.53564				
2087	20.860	50.55805	1225.71204	252.46361	97.84496	1248.78394	250.09995				
2088	20.870	52.45089	1218.53430	250.25972	99.62532	1241.33960	248.18735				
2089	20.880	54.49507	1212.42468	248.60806	101.43710	1234.32983	246.15872				
2090	20.890	56.08934	1205.17651	246.23843	102.83727	1227.12122	244.00653				
2091	20.900	57.31019	1196.36902	245.16496	104.33260	1220.55042	242.61729				
2092	20.910	58.91304	1189.66675	242.54642	106.04939	1213.25366	240.98114				
2093	20.920	60.78493	1182.80591	240.29604	108.10511	1206.61572	237.15634				
2094	20.930	62.26221	1174.64722	238.10536	109.61202	1199.18213	235.49451				
2095	20.940	65.49117	1170.76172	233.32320	111.60317	1194.55640	232.66881				
2096	20.950	67.12758	1163.99670	230.06552	113.80836	1188.73767	229.18549				
2097	20.960	68.61195	1158.31970	226.19705	115.04433	1183.49023	225.48743				
2098	20.970	70.39835	1153.17090	222.17775	116.19997	1176.49951	222.33345				
2099	20.980	71.82116	1148.61096	217.90375	118.13397	1171.98218	217.43538				
2100	20.990	73.55301	1144.40576	213.49487	119.81049	1168.10767	212.95628				
2101	21.000	74.53297	1139.41199	209.36873	121.25229	1163.87415	209.54898				
2102	21.010	75.62438	1135.82263	204.61900	122.18871	1159.01404	205.73779				
2103	21.020	77.22353	1132.73657	199.10661	123.84546	1155.35583	200.92467				
2104	21.030	77.99155	1129.56641	193.53755	125.44858	1152.61121	195.65358				
2105	21.040	79.72920	1127.51172	188.51591	127.38763	1150.68713	190.06161				
2106	21.050	80.79691	1125.47595	183.04727	128.60382	1148.80676	185.00349				
2107	21.060	82.61858	1125.57092	176.33504	129.51138	1145.99536	180.12201				
2108	21.070	83.61254	1123.09338	170.76443	131.05563	1144.67810	174.18262				
2109	21.080	85.64843	1122.45447	163.86281	132.94122	1143.07031	167.99660				
2110	21.090	87.48003	1121.51526	157.39467	134.70407	1142.33972	162.54865				
2111	21.100	87.61429	1119.49475	152.11607	136.50708	1140.07190	156.86275				
2112	21.110	89.91801	1119.20032	144.98398	138.63133	1140.79431	150.58485				
2113	21.120	91.79137	1119.07959	138.52817	139.70587	1139.07397	144.90254				
2114	21.130	93.39036	1118.76758	131.83765	141.99055	1138.98193	138.44820				
2115	21.140	95.00921	1118.10120	125.94939	143.95395	1138.74255	132.07150				
2116	21.150	96.36370	1118.05969	119.71838	145.70978	1137.82703	126.53460				
2117	21.160	98.77482	1119.11072	112.12219	147.52495	1137.68164	121.33112				
2118	21.170	99.72372	1117.63379	108.23895	148.59105	1136.63928	115.91614				
2119	21.180	102.15678	1118.83301	101.30325	150.76610	1137.39233	109.50591				
2120	21.190	104.72453	1120.46277	93.74244	152.78828	1138.07288	103.65275				
2121	21.200	106.38200	1120.93787	87.97219	154.30592	1137.53442	98.87749				
2122	21.210	107.59644	1120.87976	82.79005	155.60475	1137.12769	94.42195				
2123	21.220	108.52348	1121.19678	77.87443	157.26888	1137.20947	89.37383				
2124	21.230	109.80905	1120.98291	73.18461	158.05177	1136.11133	85.71535				
2125	21.240	111.08308	1121.49243	68.83180	159.68547	1137.25769	80.10725				
2126	21.250	112.01641	1121.18872	64.00143	159.91548	1135.98901	76.85947				
2127	21.260	112.91281	1121.36499	60.49340	162.17455	1138.01025	71.47114				
2128	21.270	113.86490	1122.19641	56.20517	162.82565	1137.30664	67.78757				
2129	21.280	115.37911	1122.72717	51.34422	163.94618	1138.07776	63.90508				
2130	21.290	116.46168	1123.27795	47.00580	165.04486	1138.75720	59.43815				
2131	21.300	117.95103	1124.56702	42.37056	165.65155	1137.93066	56.59419				
2132	21.310	118.89480	1124.29272	38.91274	167.27829	1139.01245	53.03173				
2133	21.320	119.65916	1124.69763	35.22686	167.81276	1138.14429	50.08809				
2134	21.330	120.82409	1125.19434	31.68543	169.05890	1139.27197	46.10767				
2135	21.340	121.38391	1125.73413	28.19130	169.95886	1139.52197	42.96812				
2136	21.350	122.88270	1126.39355	25.03010	171.04861	1140.53345	38.96413				
2137	21.360	123.65456	1126.47644	22.02703	171.82726	1140.00269	37.10829				
2138	21.370	124.65248	1127.27234	19.13211	173.24782	1141.22888	34.21804				
2139	21.380	125.90969	1128.12048	16.55658	174.03003	1141.31641	31.66130				
2140	21.390	126.35864	1128.09058	14.35584	174.49574	1140.69812	29.18280				
2141	21.400	127.16411	1126.93384	12.86768	175.69550	1141.11890	28.16671				
2142	21.410	128.27513	1126.52637	10.07083	175.90527	1140.36340	26.24193				
2143	21.420	129.52383	1126.53564	7.55235	177.01872	1140.89880	23.96034				
2144	21.430	129.94916	1126.34106	6.40992	178.10411	1140.81934	22.06083				
2145	21.440	130.84180	1126.34241	4.73965	179.11131	1140.72168	20.03253				
2146	21.450	131.54289	1126.23621	3.73610	179.11182	1140.42700	19.33879				
2147	21.460	132.76610	1125.34412	1.86054	180.27011	1140.36743	18.41504				
2148	21.470	133.20821	1124.80261	1.75995	181.05368	1140.22913	17.52941				
2149	21.480	133.61229	1124.93835	1.79143	181.23734	1139.79053	17.30617				
2150	21.490	133.80367	1124.10974	1.86818	181.83466	1139.98572	16.20210				
2151	21.500	134.03668	1123.92004	1.41968	181.84442	1139.41980	16.03827				
2152	21.510	134.36150	1124.26563	1.40107	182.34399	1139.53064	15.32742				
2153	21.520	134.78804	1124.33948	1.39214	182.81099	1139.53687	14.74655				
2154	21.530	135.45532	1124.91736	1.12176	183.74504	1140.14746	14.01153				
2155	21.540	136.15137	1124.99622	0.68984	183.83958	1139.82495	13.88937				
2156	21.550	136.50389	1125.27112	0.89148	183.94704	1139.88257	13.67631				
2157	21.560	136.44597	1124.99463	1.23418	184.19672	1139.98535	13.30412				
2158	21.570	136.92264	1124.72913	1.28092	184.39621	1140.24146	12.80422				
2159	21.580	136.87047	1124.83740	1.08676	184.95316	1140.76685	11.97671				
2160	21.590	137.00534	1124.20483	1.46795	185.14331	1140.71509	11.82116				
2161	21.600	137.15305	1124.27405	1.40864	185.31693	1140.69421	11.60847				
2162	21.610	137.14088	1123.29102	1.80638	185.66812	1140.86157	11.45999				
2163	21.620	137.59349	1123.78479	1.57408	185.73543	1140.68787	11.46304				
2164	21.630	137.47917	1123.19226	1.74229	185.83128	1140.51270	11.62754				
2165	21.640	137.78513	1122.82019	2.70589	186.63182	1141.23840	11.42477				
2166	21.650	137.98076	1122.71887	2.83543	186.38631	1140.75513	11.87759				
2167	21.660	137.70876	1122.46313	3.15247	186.38631	1140.75513	11.87759				
2168	21.670	137.98076	1122.71887	2.83543	186.14363	1140.03479	12.11613				
2169	21.680	137.85718	1122.49512	3.15375	186.35620	1140.27686	11.86955				
2170	21.690	137.98076	1122.71887	2.83543	186.35457	1140.36169	11.98913				
2171	21.700	138.13748	1122.87720	2.63501	186.17534	1140.42798	12.00464				
2172	21.710	137.85718	1122.49512	3.15375	186.39285	1141.21777	11.31393				
2173	21.720	137.84933	1122.70288	2.81428	186.18810	1141.18274	11.16799				
2174	21.730	137.53853	1122.90271	2.92081	185.66812	1140.86157	11.45999				
2175	21.740	137.34338	1122.77356	3.06014	185.41516	1140.62207	11.45950				
2176	21.750	137.40872	1123.81177	2.35384	185.57610	1141.02661	11.09928				
2177	21.760	137.32832	1123.82703	2.26565	185.36356	1140.78442	11.34590				
2178	21.770	137.16542	1123.56250	2.63587	185.36356	1140.78442	11.34590				
2179	21.780	137.07256	1123.80090	2.21626	185.36356	1140.78442	11.34590				
2180	21.790	137.06374	1123.62744	2.49403	185.36356	1140.78442	11.34590				
2181	21.800	136.91858	1123.50342	2.23720	185.36356	1140.78442	11.34590				
2182	21.810	137.15935	1124.50232	1.44696	185.57610	1141.02661	11.09928				
2183	21.820	136.99835	1123.68689	1.55262	185.60591	1141.51086	10.19026				
2184	21.830	136.93790	1123.45520	1.57396	186.32527	1141.70190	8.55420				
2185	21.840	137.10446	1123.59277	1.41083	186.03088	1141.51123	8.91790				
2186	21.850	136.93790	1123.45520	1.57396	185.18089	1140.53943	9.74741				
2187	21.860	136.83698	1123.18628	1.48793	186.17567	1141.86401	8.14317				
2188	21.870	137.10446	1123.59277	1.41083	186.45435	1142.04980	8.04622				
2189	21.880	137.09186	1123.75256	1.55308	185.76276	1141.37598	9.17146				
2190	21.890	136.93790	1123.45520	1.57396	185.84877	1141.71338	9.22680				
2191	21.900	136.93790	1123.45520	1.57396	185.76482	1141.26978	9.02193				
2192	21.910	136.93790	1123.45520	1.57396	186.45435	1142.04980	8.04622				
2193	21.920	136.83698	1123.18628	1.48793	186.17567	1141.86401	8.14317				
2194	21.930	136.93790	1123.45520	1.57396	185.32338	1140.78918	9.39546				
2195	21.940	136.83698	1123.18628	1.48793	186.48123	1141.94434	8.27536				
2196	21.950	136.83698	1123.18628	1.48793	185.58818	1141.14526	9.16144				
2197	21.960	136.87857	1122.92615	1.62446	185.73119	1140.97217	9.09640				
2198	21.970	136.87857	1122.92615	1.62446	185.73549	1140.28772	9.35311				
2199	21.980	137.17709	1123.12244	1.41318	186.59839	1141.13367	8.16787				
2200	21.990	137.32039	1122.80176	1.54295	185.55890	1140.16333	9.49258				
2201	22.000	137.45593	1122.31116	1.59221	186.08493	1140.78235	9.53664				
2202	22.010	137.31584	1122.18323	1.74965	185.47073	1139.93176	9.58706				
2203	22.020	137.22844	1122.32471	1.65167	186.30106	1140.85559	8.42585				
2204	22.030	136.87857	1122.92615	1.62446	184.99068	1139.65430	10.62775				
2205	22.040	136.83698	1123.18628	1.48793	184.87024	1139.75391	11.24139				
2206	22.050	136.93790	1123.45520	1.57396	185.16400	1140.65515	11.48506				
2207	22.060	136.93790	1123.45520	1.57396	184.45998	1139.81958	12.09161				
2208	22.070	136.97514	1123.86523	1.55929	184.38528	1140.70544	11.87222				
2209	22.080	136.21837	1123.10669	3.75611	183.79453	1140.71497	13.61873				
2210	22.090	135.13951	1123.09302	5.29060	183.42764	1141.46106	15.42994				
2211	22.100	134.58742	1123.23987	7.54304	182.49916	1141.05981	17.67229				
2212	22.110	133.39592	1123.25574	10.03371	181.38185	1141.61658	20.38839				
